<?xml version="1.0" standalone="no"?>
<!DOCTYPE svg PUBLIC "-//W3C//DTD SVG 20010904//EN"
 "http://www.w3.org/TR/2001/REC-SVG-20010904/DTD/svg10.dtd">
<svg version="1.0" xmlns="http://www.w3.org/2000/svg"
 width="1280.000000pt" height="922.000000pt" viewBox="0 0 1280.000000 922.000000"
 preserveAspectRatio="xMidYMid meet">
<metadata>
Created by potrace 1.15, written by Peter Selinger 2001-2017
</metadata>
<g transform="translate(0.000000,922.000000) scale(0.100000,-0.100000)"
fill="#000000" stroke="none">
<path d="M7162 9204 c-61 -11 -109 -27 -183 -65 -56 -27 -133 -58 -172 -68
-97 -24 -121 -38 -229 -131 -74 -63 -113 -88 -188 -120 -119 -51 -287 -151
-333 -199 -98 -100 -180 -219 -261 -378 -38 -73 -62 -106 -119 -159 -115 -108
-151 -161 -177 -256 -12 -46 -49 -162 -82 -258 -96 -280 -108 -322 -108 -380
0 -38 -6 -66 -21 -89 -11 -18 -19 -34 -17 -36 2 -1 86 -21 188 -45 235 -54
468 -133 637 -216 112 -55 140 -73 182 -121 28 -31 51 -67 53 -81 3 -23 17
-29 217 -89 l214 -65 46 44 46 44 124 -7 c203 -12 346 -42 661 -138 141 -43
525 -191 609 -236 14 -7 52 -40 84 -72 52 -53 58 -64 65 -115 l7 -56 415 -313
c462 -347 532 -403 606 -481 48 -50 52 -58 68 -138 23 -123 22 -142 -13 -163
l-29 -17 -36 108 -36 108 -238 173 -237 174 -291 114 c-160 62 -295 113 -300
112 -5 0 -46 -43 -92 -95 l-84 -94 -71 0 c-177 0 -223 14 -735 219 l-477 192
-72 101 -73 101 6 146 c3 80 7 158 9 173 3 19 -1 30 -13 37 -30 16 -373 131
-391 131 -12 0 -29 -29 -59 -102 -39 -94 -50 -111 -126 -189 -55 -57 -97 -92
-123 -100 -65 -24 -364 -18 -499 9 -104 21 -383 97 -393 108 -3 3 1 9 8 13 9
6 -3 14 -40 25 -89 25 -232 100 -263 137 -27 32 -28 37 -23 105 3 40 10 81 16
92 9 18 15 19 43 10 73 -23 148 -67 242 -142 97 -79 98 -79 92 -115 -22 -115
-24 -107 30 -125 27 -8 122 -36 211 -60 152 -42 171 -45 337 -52 167 -6 177
-6 230 16 77 31 153 126 218 271 76 171 68 197 -87 300 -100 66 -127 78 -290
132 -99 32 -205 65 -235 73 -45 12 -335 74 -346 74 -2 0 -1 -13 2 -28 3 -15
-2 -64 -11 -107 -9 -44 -18 -131 -20 -194 -2 -62 -7 -116 -10 -119 -8 -9 -88
81 -193 216 -48 62 -95 124 -106 137 -20 25 -18 55 6 88 20 27 122 40 221 27
111 -14 107 -15 107 24 0 33 -1 34 -57 44 -69 12 -220 -1 -262 -22 -101 -53
-191 -265 -191 -450 0 -93 18 -185 42 -213 13 -16 159 -90 255 -130 50 -21 52
-23 44 -50 -5 -15 -52 -163 -104 -328 -77 -240 -104 -343 -137 -515 -23 -118
-68 -335 -101 -481 -32 -147 -59 -273 -59 -280 0 -8 43 -38 95 -68 109 -63
121 -74 167 -156 54 -96 69 -143 84 -260 16 -119 20 -465 8 -624 l-7 -96 238
234 239 233 110 -9 c169 -12 219 -8 356 33 330 98 312 95 535 88 190 -5 205
-7 294 -37 l94 -31 86 -99 c47 -54 92 -109 98 -122 13 -23 98 -371 148 -604
l27 -123 -26 -132 c-41 -213 -46 -246 -46 -323 0 -86 -14 -120 -65 -159 -41
-31 -41 -34 -20 -183 25 -169 68 -302 124 -380 18 -25 21 -44 21 -144 0 -126
-16 -223 -53 -314 -25 -65 -3 -45 -467 -411 -444 -351 -504 -390 -700 -457
-317 -109 -540 -203 -696 -295 -79 -46 -203 -128 -229 -152 -5 -4 1724 -8
3843 -8 l3852 0 -26 57 c-39 90 -82 152 -155 228 -38 39 -75 87 -84 109 -28
68 -101 135 -192 177 -46 21 -118 65 -161 98 -281 213 -595 389 -950 530 -256
102 -444 162 -872 276 -980 262 -1172 326 -1555 514 -186 92 -224 106 -362
142 l-81 21 -32 61 c-18 34 -48 83 -66 110 -19 26 -34 52 -34 58 0 20 83 204
99 219 9 8 25 33 36 54 21 42 146 177 207 223 20 16 58 55 85 88 48 58 53 61
134 83 133 37 207 70 310 138 121 79 237 173 337 272 100 98 152 197 238 453
64 192 93 257 179 414 46 84 50 95 50 160 0 62 -5 80 -43 159 -39 83 -41 90
-27 110 57 78 101 152 145 245 28 58 63 129 77 156 56 109 93 183 125 254 18
41 46 92 61 113 27 38 36 67 72 233 25 117 66 259 77 266 5 3 16 89 25 190 11
142 12 201 4 259 -6 41 -13 131 -17 200 -3 69 -12 150 -20 181 -8 31 -14 69
-14 84 0 34 -62 173 -107 240 -18 27 -33 59 -33 69 0 11 -18 66 -40 122 -22
56 -40 108 -40 116 -1 7 -17 25 -38 39 -20 14 -43 39 -51 55 -7 16 -17 37 -22
47 -5 9 -13 25 -17 35 -45 93 -98 164 -164 217 -44 36 -78 75 -114 134 -36 59
-61 89 -86 102 -32 16 -57 42 -132 135 -16 19 -56 54 -88 77 -104 74 -130 97
-286 260 -30 31 -169 117 -190 117 -21 0 -117 52 -297 160 -94 57 -216 125
-272 152 -79 39 -107 58 -124 84 -35 58 -59 64 -257 69 -97 2 -222 11 -277 20
-234 38 -419 44 -573 19z"/>
<path d="M6920 6473 c-88 -13 -87 -12 -119 -65 -29 -46 -35 -70 -56 -217 -13
-91 -21 -170 -17 -177 4 -6 36 -49 72 -96 l64 -84 456 -182 c502 -201 611
-235 732 -230 74 3 79 5 117 42 22 21 49 61 61 87 30 70 86 272 100 361 l13
77 -49 56 c-54 63 -73 73 -324 175 -152 61 -309 117 -501 179 -172 54 -441 91
-549 74z"/>
<path d="M4526 4515 c-63 -68 -79 -149 -51 -255 44 -164 40 -217 -22 -304
l-36 -50 -54 -430 c-46 -363 -60 -452 -91 -561 l-37 -130 0 -352 c0 -222 -4
-355 -10 -361 -5 -6 -35 -17 -65 -26 -38 -11 -89 -41 -165 -97 -506 -375 -888
-540 -1815 -783 -179 -47 -381 -101 -450 -121 -649 -187 -1061 -412 -1449
-793 -64 -62 -151 -141 -194 -175 -78 -61 -78 -62 -50 -68 15 -4 1150 -7 2521
-8 2405 -1 2492 0 2483 17 -7 14 -4 25 12 45 53 64 438 274 671 365 60 24 176
65 258 92 213 70 227 79 799 532 l327 258 27 72 c62 169 72 293 29 367 -40 71
-81 170 -108 263 -27 94 -52 284 -42 324 4 14 25 35 49 51 23 14 47 33 53 42
7 8 14 74 17 150 3 93 13 176 31 261 l27 125 -80 338 -80 338 -91 104 -90 104
-95 30 -94 31 -173 -10 c-188 -10 -308 -29 -572 -91 -170 -39 -171 -40 -264
-28 l-93 13 -87 -85 c-393 -384 -432 -419 -461 -419 -18 0 -31 6 -36 17 -3 10
-1 149 6 309 10 257 10 304 -5 410 -28 208 -62 296 -147 383 -39 40 -190 119
-244 128 -28 4 -38 1 -59 -22z"/>
</g>
</svg>
